<svg xmlns="http://www.w3.org/2000/svg" viewBox="0 0 180 43.174"><defs><style>.cls-1{fill:#474747}.cls-3{fill:#f6aa00}.cls-4{fill:#f08c00}.cls-5{fill:#ec6c00}.cls-6{fill:#e84709}.cls-7{fill:#d70c18}</style></defs><g id="レイヤー_2" data-name="レイヤー 2"><g id="レイヤー_1-2" data-name="レイヤー 1"><path class="cls-1" d="M59.387 37.886c-.632-.805-1.193-1.21-1.69-1.21h-.182a.395.395 0 0 0-.308.116.322.322 0 0 0-.095.242v4.38a.346.346 0 0 0 .127.274.408.408 0 0 0 .276.094h.395v.242h-2.393v-.242h.427a.439.439 0 0 0 .276-.094.626.626 0 0 0 .126-.273v-4.38a.856.856 0 0 0-.094-.243.42.42 0 0 0-.308-.117h-.182c-.529 0-1.105.406-1.721 1.21l-.214-.093.49-1.366h4.793l.522 1.366zM63.108 42.024v-.242h.308a.51.51 0 0 0 .277-.094.372.372 0 0 0 .126-.273V39.29a1.92 1.92 0 0 0-.158-.61.874.874 0 0 0-.766-.39 1.628 1.628 0 0 0-1.263.758v2.366a.346.346 0 0 0 .126.273.422.422 0 0 0 .276.094h.34v.242H60.25v-.242h.34a.51.51 0 0 0 .276-.094.373.373 0 0 0 .126-.273v-4.31q-.036-.398-.403-.398h-.308v-.243a2.65 2.65 0 0 0 1.35-.39v2.64a2.152 2.152 0 0 1 .522-.485 1.73 1.73 0 0 1 .955-.305 1.253 1.253 0 0 1 1.106.516 1.427 1.427 0 0 1 .245.851v2.124a.346.346 0 0 0 .126.273.408.408 0 0 0 .276.094h.34v.242zM68.836 39.619h-2.274a1.83 1.83 0 0 1 .394-1 1.036 1.036 0 0 1 .83-.398.908.908 0 0 1 .773.453 1.9 1.9 0 0 1 .277.945zm.766 1.546l-.158-.117a1.93 1.93 0 0 1-1.564.788 1.204 1.204 0 0 1-1.105-.671 2.21 2.21 0 0 1-.245-1.304h3.009a2.077 2.077 0 0 0-.427-1.273 1.5 1.5 0 0 0-1.232-.609 2.038 2.038 0 0 0-2.06 2.061 2.07 2.07 0 0 0 .552 1.492 1.974 1.974 0 0 0 1.508.609 2.199 2.199 0 0 0 1.722-.976zM79.57 37.401l-1.445 4.74h-.182l-1.327-4.591-1.318 4.59h-.182l-1.413-4.864c-.119-.406-.332-.6-.585-.6h-.19v-.25h2.093v.25a1.86 1.86 0 0 0-.395.023.262.262 0 0 0-.22.273 2.064 2.064 0 0 0 .094.523l.956 3.31.916-3.255a2.154 2.154 0 0 0 .094-.453c-.023-.281-.22-.422-.584-.422h-.126v-.25h2.03v.25h-.056c-.355 0-.53.094-.53.274a3.4 3.4 0 0 0 .127.515l.956 3.342.947-3.194a2.398 2.398 0 0 0 .127-.577c-.024-.235-.237-.36-.648-.36h-.095v-.25h1.753v.274c-.394 0-.655.234-.797.702zM82.383 37.276a.544.544 0 0 1-.402.157.515.515 0 0 1-.395-.157.612.612 0 0 1-.158-.421.509.509 0 0 1 .158-.398.572.572 0 0 1 .395-.149.608.608 0 0 1 .402.149.756.756 0 0 1 .15.398.968.968 0 0 1-.15.421zm-1.318 4.74v-.242h.308a.509.509 0 0 0 .276-.094.364.364 0 0 0 .118-.273V38.83a.358.358 0 0 0-.394-.398h-.308v-.242a2.627 2.627 0 0 0 1.35-.398v3.615a.364.364 0 0 0 .118.273.444.444 0 0 0 .285.094h.331v.242zM86.697 42.024v-.242h.277a.51.51 0 0 0 .276-.094.372.372 0 0 0 .127-.273V39.29a1.28 1.28 0 0 0-.19-.672.905.905 0 0 0-.734-.327 1.848 1.848 0 0 0-1.296.6v2.523a.346.346 0 0 0 .127.273.423.423 0 0 0 .276.094h.308v.242h-2.03v-.242h.277a.51.51 0 0 0 .276-.094.372.372 0 0 0 .127-.273v-2.67q-.036-.399-.403-.399h-.308v-.242a2.429 2.429 0 0 0 1.35-.367v.859a2.276 2.276 0 0 1 1.477-.64 1.365 1.365 0 0 1 1.106.421 1.388 1.388 0 0 1 .276.914v2.124a.346.346 0 0 0 .127.273.408.408 0 0 0 .276.094h.308v.242zM92.456 39.283a1.14 1.14 0 0 1-.276.765 1.378 1.378 0 0 1-.766.274 1.259 1.259 0 0 1-.766-.274 1.061 1.061 0 0 1-.308-.765 1.006 1.006 0 0 1 .308-.757 1.03 1.03 0 0 1 .766-.305 1.048 1.048 0 0 1 .766.305 1.02 1.02 0 0 1 .276.757zm1.446-.85a.364.364 0 0 0-.119-.274.662.662 0 0 0-.434-.148.952.952 0 0 0-.703.366 2.125 2.125 0 0 0-2.432-.03 1.114 1.114 0 0 0-.49.936 1.171 1.171 0 0 0 .426.914c-.37.187-.552.406-.552.671a.55.55 0 0 0 .34.484 1.029 1.029 0 0 0-.372.305.682.682 0 0 0-.182.43.772.772 0 0 0 .435.663 3.14 3.14 0 0 0 1.595.304 3.851 3.851 0 0 0 1.54-.273 1.013 1.013 0 0 0 .64-.85c0-.587-.64-.883-1.872-.883a5.734 5.734 0 0 1-.924-.063c-.49-.07-.734-.172-.734-.297 0-.132.102-.257.308-.367a1.979 1.979 0 0 0 1.042.243 2.327 2.327 0 0 0 1.2-.336 1.25 1.25 0 0 0 .49-.945 1.32 1.32 0 0 0-.308-.757.272.272 0 0 1 .213-.094.513.513 0 0 1 .245.156.449.449 0 0 0 .34.18.287.287 0 0 0 .213-.086.38.38 0 0 0 .095-.25zm-.798 3.653c-.024.18-.19.352-.49.516a4.704 4.704 0 0 1-1.232.21 2.926 2.926 0 0 1-1.137-.242q-.402-.258-.402-.515a.709.709 0 0 1 .37-.578 4.594 4.594 0 0 0 1.17.117 6.308 6.308 0 0 1 1.263.094c.284.07.434.203.458.398zM102.274 39.22a3.12 3.12 0 0 1-.584 1.914 1.814 1.814 0 0 1-1.5.765 1.855 1.855 0 0 1-1.54-.765 3.106 3.106 0 0 1-.553-1.913 3.062 3.062 0 0 1 .553-1.882 1.826 1.826 0 0 1 1.54-.789 1.807 1.807 0 0 1 1.5.79 3.076 3.076 0 0 1 .584 1.88zm.798 0a2.847 2.847 0 0 0-.83-2.06 2.912 2.912 0 0 0-4.114 0 2.908 2.908 0 0 0 0 4.13 2.887 2.887 0 0 0 4.944-2.07zM106.683 36.863a.462.462 0 0 1-.276.086.622.622 0 0 1-.403-.242c-.134-.157-.245-.243-.34-.243-.158 0-.276.149-.34.43a2.611 2.611 0 0 0-.054.578v.546h1.168v.242h-1.168v3.155a.365.365 0 0 0 .118.273.409.409 0 0 0 .276.094h.34v.242h-2.093v-.242h.308a.438.438 0 0 0 .277-.094.626.626 0 0 0 .126-.273V38.26h-.892v-.242h.892c0-1.28.466-1.92 1.414-1.92a.94.94 0 0 1 .584.156.423.423 0 0 1 .15.335.453.453 0 0 1-.087.274zM109.939 42.024v-.242h.426a.438.438 0 0 0 .277-.094.626.626 0 0 0 .126-.273v-4.38a.494.494 0 0 0-.126-.274.484.484 0 0 0-.277-.086h-.426v-.25h2.392v.25h-.394a.449.449 0 0 0-.277.086.307.307 0 0 0-.126.273v4.38a.346.346 0 0 0 .126.274.408.408 0 0 0 .277.094h.394v.242zM118.201 42.016v-.242h.276a.632.632 0 0 0 .308-.094.372.372 0 0 0 .127-.273v-2.304a.84.84 0 0 0-.221-.608.724.724 0 0 0-.553-.242 1.42 1.42 0 0 0-.734.21 1.277 1.277 0 0 0-.435.367v2.577a.346.346 0 0 0 .127.273.48.48 0 0 0 .308.094h.276v.242h-2.03v-.242h.277a.509.509 0 0 0 .276-.094.336.336 0 0 0 .158-.273v-2.304a1.11 1.11 0 0 0-.22-.608.81.81 0 0 0-.585-.242 1.6 1.6 0 0 0-1.137.546v2.608a.346.346 0 0 0 .126.273.408.408 0 0 0 .276.094h.308v.242h-2.03v-.242h.277a.47.47 0 0 0 .277-.094.623.623 0 0 0 .126-.273v-2.67q-.035-.399-.403-.399h-.308v-.242a2.43 2.43 0 0 0 1.35-.367v.797a1.943 1.943 0 0 1 1.383-.61 1.133 1.133 0 0 1 1.113.64 2.04 2.04 0 0 1 1.469-.64 1.197 1.197 0 0 1 .955.391.787.787 0 0 1 .214.523v2.577a.345.345 0 0 0 .126.273.422.422 0 0 0 .276.094h.277v.242zM123.605 41.321a1.74 1.74 0 0 1-1.106.515.97.97 0 0 1-.647-.242.68.68 0 0 1-.213-.515q0-1.007 1.966-1.312zm1.5.273l-.15-.093a.758.758 0 0 1-.402.242.3.3 0 0 1-.245-.149.827.827 0 0 1-.056-.367V38.98c0-.664-.458-1-1.295-1a2.603 2.603 0 0 0-1.263.305.803.803 0 0 0-.521.695.366.366 0 0 0 .126.304.274.274 0 0 0 .245.094c.268-.008.45-.211.52-.578a.763.763 0 0 1 .159-.398.957.957 0 0 1 .671-.18.645.645 0 0 1 .71.726v.61a5.042 5.042 0 0 0-1.934.546 1.26 1.26 0 0 0-.742 1.093.842.842 0 0 0 .458.765 2.877 2.877 0 0 0 .869.18 2.44 2.44 0 0 0 1.381-.516.522.522 0 0 0 .277.39 1.177 1.177 0 0 0 .363.126 1.11 1.11 0 0 0 .83-.547zM128.716 39.283a1.141 1.141 0 0 1-.276.765 1.38 1.38 0 0 1-.766.274 1.258 1.258 0 0 1-.766-.274 1.06 1.06 0 0 1-.308-.765 1.006 1.006 0 0 1 .308-.757 1.03 1.03 0 0 1 .766-.305 1.048 1.048 0 0 1 .766.305 1.02 1.02 0 0 1 .276.757zm1.446-.85a.365.365 0 0 0-.119-.274.662.662 0 0 0-.434-.148.952.952 0 0 0-.703.366 2.125 2.125 0 0 0-2.432-.03 1.114 1.114 0 0 0-.49.936 1.171 1.171 0 0 0 .427.914c-.372.187-.553.406-.553.671a.55.55 0 0 0 .34.484 1.031 1.031 0 0 0-.372.305.682.682 0 0 0-.181.43.772.772 0 0 0 .434.663 3.141 3.141 0 0 0 1.595.304 3.851 3.851 0 0 0 1.54-.273 1.013 1.013 0 0 0 .64-.85c0-.587-.64-.883-1.872-.883a5.734 5.734 0 0 1-.924-.063c-.49-.07-.734-.172-.734-.297 0-.132.102-.257.308-.367a1.98 1.98 0 0 0 1.042.243 2.327 2.327 0 0 0 1.2-.336 1.25 1.25 0 0 0 .49-.945 1.323 1.323 0 0 0-.308-.757.272.272 0 0 1 .213-.094.512.512 0 0 1 .245.156.449.449 0 0 0 .34.18.287.287 0 0 0 .213-.086.38.38 0 0 0 .095-.25zm-.798 3.653c-.024.18-.19.352-.49.516a4.704 4.704 0 0 1-1.232.21 2.925 2.925 0 0 1-1.137-.242q-.403-.258-.402-.515a.709.709 0 0 1 .37-.578 4.595 4.595 0 0 0 1.17.117 6.308 6.308 0 0 1 1.263.094c.284.07.434.203.458.398zM132.217 37.276a.545.545 0 0 1-.403.157.515.515 0 0 1-.394-.157.611.611 0 0 1-.159-.421.509.509 0 0 1 .159-.398.572.572 0 0 1 .394-.149.608.608 0 0 1 .403.149.756.756 0 0 1 .15.398.968.968 0 0 1-.15.421zm-1.319 4.74v-.242h.308a.509.509 0 0 0 .277-.094.364.364 0 0 0 .118-.273V38.83a.358.358 0 0 0-.395-.398h-.308v-.242a2.627 2.627 0 0 0 1.35-.398v3.615a.364.364 0 0 0 .119.273.444.444 0 0 0 .284.094h.332v.242zM136.531 42.024v-.242h.276a.51.51 0 0 0 .277-.094.373.373 0 0 0 .126-.273V39.29a1.277 1.277 0 0 0-.19-.672.904.904 0 0 0-.734-.327 1.848 1.848 0 0 0-1.295.6v2.523a.346.346 0 0 0 .126.273.423.423 0 0 0 .277.094h.308v.242h-2.03v-.242h.277a.51.51 0 0 0 .276-.094.372.372 0 0 0 .126-.273v-2.67q-.035-.399-.402-.399h-.308v-.242a2.429 2.429 0 0 0 1.35-.367v.859a2.276 2.276 0 0 1 1.477-.64 1.366 1.366 0 0 1 1.105.421 1.388 1.388 0 0 1 .277.914v2.124a.346.346 0 0 0 .126.273.408.408 0 0 0 .276.094h.308v.242zM141.895 41.321a1.74 1.74 0 0 1-1.105.515.97.97 0 0 1-.648-.242.68.68 0 0 1-.213-.515q0-1.007 1.966-1.312zm1.5.273l-.15-.093a.758.758 0 0 1-.402.242.3.3 0 0 1-.245-.149.83.83 0 0 1-.055-.367V38.98c0-.664-.458-1-1.295-1a2.603 2.603 0 0 0-1.264.305.803.803 0 0 0-.521.695.366.366 0 0 0 .126.304.274.274 0 0 0 .245.094c.269-.008.45-.211.521-.578a.764.764 0 0 1 .158-.398.957.957 0 0 1 .672-.18.645.645 0 0 1 .71.726v.61a5.042 5.042 0 0 0-1.935.546 1.26 1.26 0 0 0-.742 1.093.842.842 0 0 0 .458.765 2.876 2.876 0 0 0 .869.18 2.44 2.44 0 0 0 1.382-.516.522.522 0 0 0 .276.39 1.173 1.173 0 0 0 .363.126 1.11 1.11 0 0 0 .83-.547zM145.49 42.14a.852.852 0 0 1-.915-.975v-2.881h-.68v-.219a1.125 1.125 0 0 0 .924-.632 1.746 1.746 0 0 0 .182-.789h.213v1.421h1.359v.219h-1.359v2.795a.992.992 0 0 0 .095.484.439.439 0 0 0 .403.242 1.1 1.1 0 0 0 .797-.515l.119.125a1.494 1.494 0 0 1-1.138.726zM148.644 37.276a.545.545 0 0 1-.403.157.515.515 0 0 1-.395-.157.612.612 0 0 1-.158-.421.51.51 0 0 1 .158-.398.573.573 0 0 1 .395-.149.608.608 0 0 1 .403.149.756.756 0 0 1 .15.398.968.968 0 0 1-.15.421zm-1.319 4.74v-.242h.308a.509.509 0 0 0 .276-.094.364.364 0 0 0 .119-.273V38.83a.358.358 0 0 0-.395-.398h-.308v-.242a2.628 2.628 0 0 0 1.35-.398v3.615a.364.364 0 0 0 .119.273.444.444 0 0 0 .284.094h.332v.242zM153.526 40.064a2.024 2.024 0 0 1-.37 1.28 1.265 1.265 0 0 1-2.094 0 2.088 2.088 0 0 1-.37-1.28 2.174 2.174 0 0 1 .37-1.296 1.23 1.23 0 0 1 1.05-.578 1.247 1.247 0 0 1 1.043.578 2.157 2.157 0 0 1 .371 1.296zm.703 0a2.02 2.02 0 0 0-.616-1.476 2.162 2.162 0 0 0-3.009 0 1.974 1.974 0 0 0-.615 1.476 1.935 1.935 0 0 0 .615 1.46 2.143 2.143 0 0 0 3.01 0 1.981 1.981 0 0 0 .615-1.46zM157.777 42.024v-.242h.276a.51.51 0 0 0 .277-.094.373.373 0 0 0 .126-.273V39.29a1.28 1.28 0 0 0-.19-.672.905.905 0 0 0-.734-.327 1.847 1.847 0 0 0-1.295.6v2.523a.346.346 0 0 0 .127.273.423.423 0 0 0 .276.094h.308v.242h-2.03v-.242h.277a.51.51 0 0 0 .276-.094.372.372 0 0 0 .127-.273v-2.67q-.036-.399-.403-.399h-.308v-.242a2.429 2.429 0 0 0 1.35-.367v.859a2.276 2.276 0 0 1 1.477-.64 1.366 1.366 0 0 1 1.105.421 1.388 1.388 0 0 1 .277.914v2.124a.345.345 0 0 0 .126.273.408.408 0 0 0 .277.094h.308v.242zM162.944 41.93a2.498 2.498 0 0 1-.83.21 3.442 3.442 0 0 1-.615-.124 1.3 1.3 0 0 0-.395-.117.597.597 0 0 0-.403.242l-.276-1.366.181-.063a1.759 1.759 0 0 0 1.477 1.187 1.681 1.681 0 0 0 .553-.094.77.77 0 0 0 .434-.671c-.023-.297-.245-.531-.679-.695-.426-.156-.821-.281-1.169-.399a.984.984 0 0 1-.766-.999.946.946 0 0 1 .403-.82 1.322 1.322 0 0 1 .798-.242 1.893 1.893 0 0 1 .552.094 1.823 1.823 0 0 0 .395.086.721.721 0 0 0 .435-.18l.213 1.218-.15.055a1.884 1.884 0 0 0-.68-.789 1.412 1.412 0 0 0-.734-.242.93.93 0 0 0-.584.18.541.541 0 0 0-.213.46c0 .25.22.461.67.633.412.148.83.304 1.264.46a.981.981 0 0 1 .672 1 1.1 1.1 0 0 1-.553.976zM61.364 7.452q.382-.394 2.276-.395 3.334 0 4.828 1.271a5.196 5.196 0 0 1 1.459 4.07 4.937 4.937 0 0 1-1.667 4.19q-1.703 1.272-5.489 1.271h-.556a1.679 1.679 0 0 1-1.077-.223 3.288 3.288 0 0 1-.173-1.391V9.169q0-1.407.4-1.717zm-.121 11.953a2.164 2.164 0 0 1 1.18-.206h1.32a8.169 8.169 0 0 1 5.298 1.442 5.444 5.444 0 0 1 1.702 4.397 5.767 5.767 0 0 1-1.597 4.396 6.581 6.581 0 0 1-4.69 1.511h-.747a3.749 3.749 0 0 1-2.31-.429 1.984 1.984 0 0 1-.434-1.511v-8.45q0-.91.278-1.15zm7.79 12.63a8.94 8.94 0 0 0 3.204-1.416 6.767 6.767 0 0 0 2.536-5.805 6.376 6.376 0 0 0-1.424-4.25 7.549 7.549 0 0 0-4.308-2.327 6.874 6.874 0 0 0 3.492-2.353 6.003 6.003 0 0 0 1.163-3.657 5.645 5.645 0 0 0-2.275-4.775 10.38 10.38 0 0 0-6.41-1.735H53.81v.808a5.8 5.8 0 0 1 1.72.223 2.769 2.769 0 0 1 1.024.584 3.983 3.983 0 0 1 .712 2.782V28.13a4.127 4.127 0 0 1-.712 2.816 3.826 3.826 0 0 1-2.744.739v.807h10.612a19.95 19.95 0 0 0 4.612-.455zM88.135 7.521a2.181 2.181 0 0 1 .78-.292 5.653 5.653 0 0 1 1.182-.103 11.398 11.398 0 0 1 2.987.343A5.748 5.748 0 0 1 95.1 8.5a5.332 5.332 0 0 1 1.58 4.294 5.507 5.507 0 0 1-1.858 4.637q-1.875 1.477-6.148 1.477a.867.867 0 0 1-.678-.206 1.152 1.152 0 0 1-.208-.807V9.273a2.864 2.864 0 0 1 .347-1.752zM91.4 31.684h-.278a3.244 3.244 0 0 1-2.623-.859 4.558 4.558 0 0 1-.712-2.954V21.26a1.192 1.192 0 0 1 .208-.807 1.067 1.067 0 0 1 .678-.172h2.136q.521.807 2.24 3.331 1.425 2.079 2.172 3.126 1.232 1.803 2.24 3.074.955 1.27 2.085 2.679h5.314v-.807q-1.007-.103-3.282-2.782-2.102-2.542-6.791-9.429a8.226 8.226 0 0 0 4.342-2.49 6.577 6.577 0 0 0 1.459-4.327 6.398 6.398 0 0 0-2.067-5.17q-2.068-1.768-6.045-1.769h-11.88v.808a7.313 7.313 0 0 1 1.772.189 2.62 2.62 0 0 1 1.077.55 3.728 3.728 0 0 1 .712 2.644v17.963a5.085 5.085 0 0 1-.678 3.006 3.087 3.087 0 0 1-2.414.807h-.469v.807H91.4zM131.248 32.49h-20.495v-.806a6.489 6.489 0 0 0 1.71-.18 2.75 2.75 0 0 0 1.07-.559 4.28 4.28 0 0 0 .676-2.816V10.114a4.047 4.047 0 0 0-.677-2.782 2.763 2.763 0 0 0-1.06-.584 6.022 6.022 0 0 0-1.72-.223v-.808h19.993l.33 5.908h-.713a6.012 6.012 0 0 0-1.354-3.469 5.248 5.248 0 0 0-3.492-.893h-5.905a2.251 2.251 0 0 0-1.39.292 2.584 2.584 0 0 0-.312 1.614v7.18a1.736 1.736 0 0 0 .208 1.081 1.396 1.396 0 0 0 .921.206h4.672q2.727 0 3.509-.773a3.806 3.806 0 0 0 .972-2.988h.713v9.222h-.713a6.435 6.435 0 0 0-.234-1.906 2.592 2.592 0 0 0-.738-1.185q-.782-.807-3.509-.807h-4.707a1.53 1.53 0 0 0-.886.171 1.736 1.736 0 0 0-.208 1.083v8.02a3.523 3.523 0 0 0 .339 1.914 1.614 1.614 0 0 0 1.328.438h5.489a8.333 8.333 0 0 0 4.759-1.047 8.744 8.744 0 0 0 2.588-4.225l.643.36zM142.63 33.023h-.591l-1.285-8.62h.712a14.077 14.077 0 0 0 3.126 5.409 5.485 5.485 0 0 0 3.943 1.906 4.075 4.075 0 0 0 3.1-1.374 4.783 4.783 0 0 0 1.277-3.383 5.063 5.063 0 0 0-.851-2.816 9.87 9.87 0 0 0-2.588-2.456l-3.648-2.49a16.614 16.614 0 0 1-2.015-1.666 7.36 7.36 0 0 1-1.389-1.614 7.3 7.3 0 0 1-1.043-3.864 6.862 6.862 0 0 1 1.928-4.998 6.68 6.68 0 0 1 4.95-1.94 8.452 8.452 0 0 1 2.954.6 8.13 8.13 0 0 0 1.962.602.598.598 0 0 0 .556-.292 1.197 1.197 0 0 0 .295-.91h.643l.747 8.088h-.712a11.623 11.623 0 0 0-2.606-4.98 4.691 4.691 0 0 0-3.63-1.735 3.831 3.831 0 0 0-2.831 1.134 3.982 3.982 0 0 0-1.077 2.885 4.352 4.352 0 0 0 .782 2.559 8.474 8.474 0 0 0 2.57 2.353l4.047 2.747a11.486 11.486 0 0 1 3.457 3.384 7.598 7.598 0 0 1 1.025 3.967 7.496 7.496 0 0 1-2.033 5.53 7.339 7.339 0 0 1-5.47 2.077 10.215 10.215 0 0 1-3.301-.566l-1.858-.498a1.191 1.191 0 0 0-.747.214 1.262 1.262 0 0 0-.4.747zM166.192 33.023h-.59l-1.286-8.62h.712a14.078 14.078 0 0 0 3.126 5.409 5.486 5.486 0 0 0 3.943 1.906 4.075 4.075 0 0 0 3.1-1.374 4.783 4.783 0 0 0 1.277-3.383 5.063 5.063 0 0 0-.851-2.816 9.867 9.867 0 0 0-2.588-2.456l-3.647-2.49a16.647 16.647 0 0 1-2.015-1.666 7.368 7.368 0 0 1-1.39-1.614 7.3 7.3 0 0 1-1.042-3.864 6.862 6.862 0 0 1 1.928-4.998 6.679 6.679 0 0 1 4.95-1.94 8.452 8.452 0 0 1 2.953.6 8.14 8.14 0 0 0 1.962.602.598.598 0 0 0 .556-.292 1.197 1.197 0 0 0 .295-.91h.643l.747 8.088h-.712a11.623 11.623 0 0 0-2.606-4.98 4.691 4.691 0 0 0-3.63-1.735 3.83 3.83 0 0 0-2.83 1.134 3.982 3.982 0 0 0-1.077 2.885 4.35 4.35 0 0 0 .781 2.559 8.476 8.476 0 0 0 2.571 2.353l4.047 2.747a11.483 11.483 0 0 1 3.456 3.384A7.598 7.598 0 0 1 180 25.518a7.496 7.496 0 0 1-2.032 5.53 7.339 7.339 0 0 1-5.471 2.078 10.213 10.213 0 0 1-3.3-.566l-1.859-.498a1.192 1.192 0 0 0-.747.214 1.262 1.262 0 0 0-.4.747z"/><path d="M20.072.715a2.457 2.457 0 0 0-.02 3.502 2.525 2.525 0 0 0 3.542.021 2.457 2.457 0 0 0 .02-3.502 2.525 2.525 0 0 0-3.542-.021z" fill="#fdd000"/><path class="cls-3" d="M26.515 7.085a2.457 2.457 0 0 0-.021 3.503 2.525 2.525 0 0 0 3.542.02 2.457 2.457 0 0 0 .021-3.502 2.525 2.525 0 0 0-3.542-.02z"/><path class="cls-4" d="M32.958 13.455a2.457 2.457 0 0 0-.022 3.503 2.525 2.525 0 0 0 3.543.02 2.457 2.457 0 0 0 .021-3.502 2.525 2.525 0 0 0-3.542-.02z"/><path class="cls-5" d="M39.4 19.826a2.457 2.457 0 0 0-.02 3.502 2.526 2.526 0 0 0 3.542.02 2.457 2.457 0 0 0 .02-3.502 2.525 2.525 0 0 0-3.542-.02z"/><path class="cls-3" d="M13.63 7.085a2.457 2.457 0 0 0-.022 3.503 2.525 2.525 0 0 0 3.543.02 2.457 2.457 0 0 0 .02-3.502 2.525 2.525 0 0 0-3.541-.02z"/><path class="cls-4" d="M20.072 13.455a2.457 2.457 0 0 0-.02 3.503 2.525 2.525 0 0 0 3.542.02 2.457 2.457 0 0 0 .02-3.502 2.525 2.525 0 0 0-3.542-.02z"/><path class="cls-5" d="M26.515 19.826a2.457 2.457 0 0 0-.021 3.502 2.525 2.525 0 0 0 3.542.02 2.457 2.457 0 0 0 .021-3.502 2.525 2.525 0 0 0-3.542-.02z"/><path class="cls-6" d="M32.958 26.196a2.457 2.457 0 0 0-.022 3.502 2.525 2.525 0 0 0 3.543.021 2.457 2.457 0 0 0 .021-3.502 2.525 2.525 0 0 0-3.542-.021z"/><path class="cls-4" d="M7.187 13.455a2.457 2.457 0 0 0-.021 3.503 2.525 2.525 0 0 0 3.542.02 2.457 2.457 0 0 0 .021-3.502 2.525 2.525 0 0 0-3.542-.02z"/><path class="cls-5" d="M13.63 19.826a2.457 2.457 0 0 0-.022 3.502 2.526 2.526 0 0 0 3.543.02 2.457 2.457 0 0 0 .02-3.502 2.525 2.525 0 0 0-3.541-.02z"/><path class="cls-6" d="M20.072 26.196a2.457 2.457 0 0 0-.02 3.502 2.525 2.525 0 0 0 3.542.021 2.457 2.457 0 0 0 .02-3.502 2.525 2.525 0 0 0-3.542-.021z"/><path class="cls-7" d="M26.515 32.566a2.457 2.457 0 0 0-.021 3.502 2.525 2.525 0 0 0 3.542.021 2.457 2.457 0 0 0 .021-3.502 2.525 2.525 0 0 0-3.542-.021z"/><path class="cls-5" d="M.744 19.826a2.457 2.457 0 0 0-.021 3.502 2.525 2.525 0 0 0 3.542.02 2.457 2.457 0 0 0 .022-3.502 2.525 2.525 0 0 0-3.543-.02z"/><path class="cls-6" d="M7.187 26.196a2.457 2.457 0 0 0-.021 3.502 2.525 2.525 0 0 0 3.542.021 2.457 2.457 0 0 0 .021-3.502 2.525 2.525 0 0 0-3.542-.021z"/><path class="cls-7" d="M13.63 32.566a2.457 2.457 0 0 0-.022 3.502 2.525 2.525 0 0 0 3.543.021 2.457 2.457 0 0 0 .02-3.502 2.525 2.525 0 0 0-3.541-.021z"/><path d="M20.072 38.936a2.457 2.457 0 0 0-.02 3.502 2.525 2.525 0 0 0 3.542.021 2.457 2.457 0 0 0 .02-3.502 2.525 2.525 0 0 0-3.542-.02z" fill="#b81c22"/></g></g></svg>